<svg xmlns="http://www.w3.org/2000/svg" width="1024" height="1024" viewBox="0 0 1024 1024">
  <defs>
    <linearGradient id="bg" x1="0" y1="0" x2="1" y2="1"><stop stop-color="#18345b"/><stop offset="1" stop-color="#081b3a"/></linearGradient>
    <linearGradient id="gold" x1="0" y1="0" x2="1" y2="1"><stop stop-color="#f7d98a"/><stop offset="1" stop-color="#b9832f"/></linearGradient>
    <filter id="shadow" x="-30%" y="-30%" width="160%" height="160%"><feDropShadow dx="0" dy="18" stdDeviation="18" flood-color="#000" flood-opacity=".32"/></filter>
  </defs>
  <rect x="28" y="28" width="968" height="968" rx="220" fill="url(#bg)"/>
  <path d="M512 150v575M350 306h324M395 306l-116 210c-22 41 20 88 68 88s90-47 68-88L395 306Zm234 0L513 516c-22 41 20 88 68 88s90-47 68-88L629 306Z" fill="none" stroke="url(#gold)" stroke-width="28" stroke-linecap="round" stroke-linejoin="round" filter="url(#shadow)"/>
  <path d="M256 778c72-48 153-48 256 0 103-48 184-48 256 0v90c-75-42-160-42-256 8-96-50-181-50-256-8v-90Z" transform="translate(0,-4)" fill="#fff" opacity=".96"/>
  <path d="M512 782v94M256 778c72-48 153-48 256 0 103-48 184-48 256 0M256 868c75-42 160-42 256 8 96-50 181-50 256-8" fill="none" stroke="#dbe8f7" stroke-width="14" stroke-linecap="round"/>
</svg>
